<svg width="36" height="36" viewBox="0 0 36 36" xmlns="http://www.w3.org/2000/svg">
    <g fill="none" fill-rule="evenodd">
        <circle fill-opacity=".3" fill="#000" cx="18" cy="18" r="18"/>
        <path d="M9.956 9.124c.292 0 .545.205.605.492l.518 2.477h13.937c.976 0 1.776.755 1.85 1.712l.006.145c0 .124-.012.249-.037.37l-1.198 5.877c-.106.51-.384.967-.784 1.291-1.3 1.067-3.397 1.578-6.296 1.578-2.906 0-5.007-.513-6.306-1.586a2.274 2.274 0 0 1-.777-1.294l-1.378-6.755a.63.63 0 0 1-.004-.014l-.64-3.056H7.86a.619.619 0 0 1-.613-.535l-.006-.084c0-.341.277-.618.619-.618h2.096zm1.383 4.206 1.347 6.608c.048.23.172.439.353.588 1.033.853 2.873 1.303 5.518 1.303 2.639 0 4.476-.448 5.514-1.3a1.02 1.02 0 0 0 .355-.582l1.196-5.873a.619.619 0 0 0-.606-.743H11.339zm2.213 10.726a2.351 2.351 0 1 0 0 4.703 2.351 2.351 0 0 0 0-4.703zm0 1.238a1.114 1.114 0 1 1 0 2.227 1.114 1.114 0 0 1 0-2.227zm9.735-1.238a2.351 2.351 0 1 0 0 4.703 2.351 2.351 0 0 0 0-4.703zm0 1.238a1.114 1.114 0 1 1 0 2.227 1.114 1.114 0 0 1 0-2.227z" fill="#FFF" fill-rule="nonzero"/>
    </g>
</svg>
