<svg width="19" height="19" viewBox="0 0 19 19" xmlns="http://www.w3.org/2000/svg">
    <g fill="none" fill-rule="evenodd">
        <path fill="#FFF" d="M-18-1109h360v5352H-18z"/>
        <path fill="#F9F9F9" fill-rule="nonzero" d="M-18-35h360v396H-18z"/>
        <text transform="translate(0 -3)" fill="#46433F" font-family="Pretendard-Bold, Pretendard" font-size="22" font-weight="bold">
                        <tspan x="0" y="21">오늘의 타임딜</tspan>
                    </text>
        <g fill-rule="nonzero">
            <path fill="#F9F9F9" d="M-18-35h360v396H-18z"/>
            <path d="M9.5 0a9.5 9.5 0 1 1 0 19 9.5 9.5 0 0 1 0-19zm.34 4.071-.123.011a.679.679 0 0 0-.556.668v5.088l-3.767 2.489-.096.076a.679.679 0 0 0 .844 1.056l4.071-2.69.105-.085a.679.679 0 0 0 .2-.48V4.75l-.011-.122a.679.679 0 0 0-.668-.557z" fill="#FF5833"/>
        </g>
    </g>
</svg>
