<svg xmlns="http://www.w3.org/2000/svg" width="24" height="24" viewBox="0 0 24 24">
    <g fill="none" fill-rule="evenodd">
        <g fill="#46433F" fill-rule="nonzero">
            <g>
                <path d="M16.86 3.016c5.523 0 10 4.477 10 10 0 5.306-4.131 9.646-9.353 9.98v6.958c0 .415-.336.75-.75.75s-.75-.335-.75-.75V22.98c-5.124-.433-9.147-4.729-9.147-9.964 0-5.523 4.477-10 10-10zm0 1.5c-4.694 0-8.5 3.806-8.5 8.5 0 4.695 3.806 8.5 8.5 8.5 4.695 0 8.5-3.805 8.5-8.5 0-4.694-3.805-8.5-8.5-8.5z" transform="translate(-318 -18) translate(314 14) rotate(-45 16.86 16.86)"/>
            </g>
        </g>
    </g>
</svg>
