<svg xmlns="http://www.w3.org/2000/svg" width="10" height="10" viewBox="0 0 10 10">
    <g fill="none" fill-rule="evenodd">
        <g fill="#FFF" fill-rule="nonzero">
            <g>
                <g>
                    <g>
                        <path d="M1.76.992L5 4.232 8.24.992c.212-.212.555-.212.768 0 .212.213.212.556 0 .769L5.768 5l3.24 3.238c.212.213.212.556 0 .769-.213.212-.556.212-.769 0L5 5.768l-3.24 3.24c-.212.212-.555.212-.768 0-.212-.213-.212-.556 0-.769L4.232 5 .992 1.76C.78 1.549.78 1.206.992.993c.213-.212.556-.212.769 0z" transform="translate(-316.000000, -131.000000) translate(18.000000, 114.000000) translate(291.000000, 10.000000) translate(7.000000, 7.000000)"/>
                    </g>
                </g>
            </g>
        </g>
    </g>
</svg>
