<svg xmlns="http://www.w3.org/2000/svg" width="24" height="24" viewBox="0 0 24 24">
    <g fill="none" fill-rule="evenodd">
        <g fill="#46433F" fill-rule="nonzero">
            <g>
                <path d="M12.013 0c1.531 0 2.773 1.241 2.773 2.773v.264c.554.174 1.086.4 1.59.67l.187-.188c1.083-1.083 2.84-1.083 3.922 0 1.038 1.038 1.081 2.693.13 3.782l-.13.14-.23.228c.253.496.462 1.018.623 1.56h.35c1.53 0 2.772 1.242 2.772 2.774 0 1.53-1.241 2.772-2.773 2.772l-.44.001c-.17.507-.381.995-.631 1.459l.33.33c1.037 1.037 1.08 2.693.13 3.782l-.13.139c-1.084 1.083-2.84 1.083-3.923 0l-.38-.38c-.45.229-.92.42-1.41.574v.547c0 1.475-1.15 2.68-2.603 2.768L12 24c-1.532 0-2.773-1.241-2.773-2.773v-.555c-.49-.155-.963-.35-1.414-.58l-.389.389c-1.083 1.083-2.839 1.083-3.922 0-1.083-1.083-1.083-2.838 0-3.92l.352-.354c-.243-.456-.45-.934-.615-1.431h-.466C1.24 14.775 0 13.533 0 12.002 0 10.47 1.241 9.23 2.773 9.23l.374-.001c.159-.536.365-1.052.613-1.543l-.245-.246c-1.083-1.082-1.083-2.838 0-3.92 1.083-1.084 2.839-1.084 3.922 0l.196.195c.509-.274 1.046-.502 1.606-.678v-.264c0-1.475 1.151-2.68 2.604-2.768l.17-.005zm0 1.3c-.767 0-1.396.584-1.467 1.33l-.007.142v1.22l-.91.286c-.358.112-.708.25-1.045.412l-.334.17-.85.457-.882-.879c-.576-.575-1.509-.575-2.084 0-.54.54-.573 1.393-.101 1.971l.101.112.912.912-.426.84c-.161.319-.3.648-.417.985l-.11.34-.274.929-1.346.003c-.814 0-1.473.66-1.473 1.473 0 .765.584 1.394 1.332 1.466l.143.006 1.402.002.295.889c.106.318.232.628.377.93l.152.298.454.85-1.034 1.035c-.575.575-.575 1.508 0 2.083.54.539 1.393.573 1.973.1l.112-.101 1.057-1.056.842.43c.292.149.593.28.902.392l.31.105.909.287v1.508c0 .766.585 1.395 1.332 1.466l.141.007c.767 0 1.396-.584 1.468-1.332l.006-.142.001-1.502.912-.285c.313-.098.618-.215.916-.35l.294-.142.84-.426 1.046 1.046c.54.54 1.393.573 1.972.1l.102-.092.08-.083c.473-.542.48-1.344.032-1.895l-.103-.114-1.012-1.014.458-.851c.162-.3.305-.611.427-.93l.115-.322.295-.889 1.38-.002c.813 0 1.472-.66 1.472-1.472 0-.766-.584-1.395-1.333-1.466l-.143-.007-1.318-.003-.275-.929c-.102-.347-.229-.685-.377-1.014l-.157-.325-.429-.842.898-.896c.575-.575.575-1.508 0-2.083-.54-.539-1.393-.573-1.972-.1l-.112.101-.87.869-.85-.456c-.327-.175-.666-.327-1.014-.455l-.352-.12-.91-.286V2.773c0-.766-.584-1.395-1.331-1.466l-.142-.007zM12 8.129c2.138 0 3.871 1.733 3.871 3.871S14.138 15.871 12 15.871 8.129 14.138 8.129 12 9.862 8.129 12 8.129zm0 1.3c-1.42 0-2.571 1.15-2.571 2.571 0 1.42 1.15 2.571 2.571 2.571 1.42 0 2.571-1.15 2.571-2.571 0-1.42-1.15-2.571-2.571-2.571z" transform="translate(-318.000000, -18.000000) translate(318.000000, 18.000000)"/>
            </g>
        </g>
    </g>
</svg>
