<svg width="22" height="22" viewBox="0 0 22 22" xmlns="http://www.w3.org/2000/svg">
    <g fill="none" fill-rule="evenodd">
        <path d="M12.948 1.525a8.214 8.214 0 0 1 5.882 13.948l-.146.144 2.99 3.564a.701.701 0 0 1 .041.848l-.058.073-.068.066a.701.701 0 0 1-.922-.018l-.066-.068-2.999-3.574-.19.128a8.164 8.164 0 0 1-3.825 1.294l-.318.018-.321.006a8.214 8.214 0 1 1 0-16.429zm-7.644 13.83c.387 0 .7.307.7.687a.692.692 0 0 1-.605.68l-.095.007H.746a.694.694 0 0 1-.7-.687c0-.348.263-.636.605-.682l.095-.006h4.558zm7.644-12.428a6.813 6.813 0 1 0 0 13.625 6.813 6.813 0 0 0 0-13.625zM3.25 8.937c.387 0 .7.308.7.688a.692.692 0 0 1-.605.681l-.095.007H.746a.694.694 0 0 1-.7-.688c0-.348.263-.636.605-.681l.095-.007H3.25zm2.054-6.416c.387 0 .7.308.7.687a.692.692 0 0 1-.605.682l-.095.006H.746a.694.694 0 0 1-.7-.688c0-.348.263-.635.605-.68l.095-.007h4.558z" fill="#46433F" fill-rule="nonzero"/>
    </g>
</svg>
