<svg width="22" height="22" viewBox="0 0 22 22" xmlns="http://www.w3.org/2000/svg">
    <path d="M3.062.138c.325 0 .606.228.673.546l.575 2.752 15.485.002c1.088 0 1.978.84 2.057 1.908l.006.154c0 .138-.014.276-.042.412l-1.33 6.529a2.507 2.507 0 0 1-.872 1.435c-1.443 1.185-3.774 1.753-6.995 1.753-3.229 0-5.564-.57-7.007-1.762a2.527 2.527 0 0 1-.863-1.438L3.22 4.936a.7.7 0 0 1-.006-.028l-.712-3.396H.734a.688.688 0 0 1-.68-.594L.045.825c0-.38.308-.688.687-.688h2.329zm16.733 4.675L4.6 4.811l1.497 7.341c.052.257.191.488.392.654 1.148.948 3.192 1.447 6.13 1.447 2.933 0 4.975-.497 6.127-1.444.202-.163.341-.393.394-.647l1.33-6.526a.687.687 0 0 0-.674-.824zM7.058 16.729a2.613 2.613 0 1 0 0 5.225 2.613 2.613 0 0 0 0-5.225zm0 1.375a1.237 1.237 0 1 1 0 2.475 1.237 1.237 0 0 1 0-2.475zm10.817-1.375a2.613 2.613 0 1 0 0 5.225 2.613 2.613 0 0 0 0-5.225zm0 1.375a1.237 1.237 0 1 1 0 2.475 1.237 1.237 0 0 1 0-2.475z" fill="#46433F" fill-rule="nonzero"/>
</svg>
