<svg width="24" height="24" viewBox="0 0 24 24" xmlns="http://www.w3.org/2000/svg">
    <path d="M3.34.15a.75.75 0 0 1 .734.596l.629 3.003 16.892.001a2.25 2.25 0 0 1 2.245 2.096l.005.154c0 .15-.015.301-.045.45l-1.452 7.122a2.734 2.734 0 0 1-.95 1.565c-1.575 1.294-4.118 1.913-7.632 1.913-3.522 0-6.07-.622-7.644-1.923a2.757 2.757 0 0 1-.942-1.568L3.516 5.397a.762.762 0 0 1-.01-.043L2.73 1.65H.8a.75.75 0 0 1-.743-.648L.05.9A.75.75 0 0 1 .8.15h2.54zm18.255 5.1L5.017 5.249l1.633 8.009c.057.28.209.532.428.713 1.252 1.034 3.482 1.579 6.688 1.579 3.199 0 5.426-.542 6.683-1.575.22-.178.372-.429.43-.706l1.45-7.12a.75.75 0 0 0-.734-.899zM7.7 18.25a2.85 2.85 0 1 0 0 5.7 2.85 2.85 0 0 0 0-5.7zm0 1.5a1.35 1.35 0 1 1 0 2.7 1.35 1.35 0 0 1 0-2.7zm11.8-1.5a2.85 2.85 0 1 0 0 5.7 2.85 2.85 0 0 0 0-5.7zm0 1.5a1.35 1.35 0 1 1 0 2.7 1.35 1.35 0 0 1 0-2.7z" fill="#46433F" fill-rule="nonzero"/>
</svg>
