<svg width="11" height="14" viewBox="0 0 11 14" xmlns="http://www.w3.org/2000/svg">
    <g transform="translate(-13 -11)" fill="none" fill-rule="evenodd">
        <rect stroke="#BBB8B5" fill-opacity=".8" fill="#FFF" fill-rule="nonzero" x=".5" y=".5" width="83" height="35" rx="4"/>
        <path d="m16.515 16.199 2.694 3.531.047.05c.06.053.172.118.3.035l1.073-.624.048-.02.088-.026a.649.649 0 0 1 .503.094l2.403 2.15.029.047c.06.11.173.4-.078.718l-1.785 1.799-.06.03c-.13.052-.46.125-1.015-.125l-.147-.071-.119-.052-.214-.11-.146-.08-.172-.102-.197-.124-.221-.148-.246-.173-.27-.2a15.152 15.152 0 0 1-.145-.112l-.306-.244a18.159 18.159 0 0 1-.161-.134l-.341-.292c-.222-.194-.438-.4-.648-.614l-.31-.326a17.56 17.56 0 0 1-.862-1.016l-.262-.34a21.988 21.988 0 0 1-.126-.168l-.241-.332-.226-.322-.21-.31-.192-.292-.175-.274-.292-.475-.21-.358-.227-.412-.153-.303-.148-.32-.108-.251-.113-.278-.113-.301-.11-.322-.114-.37-.05-.147-.044-.153-.048-.186c-.109-.465-.186-1.128.13-1.473l1.651-1.533.053-.03.085-.04c.187-.077.528-.154.794.14l1.458 2.913.018.051a.905.905 0 0 1-.117.753l-.713 1.012s-.062.11.061.26z" fill="#46433F"/>
    </g>
</svg>
