<svg width="22" height="22" viewBox="0 0 22 22" xmlns="http://www.w3.org/2000/svg">
    <path d="m12.736.617 7.671 6.242c.428.348.676.87.676 1.422v10.172C20.347 20.435 16.05 22 11 22S1.652 20.394.917 18.412V8.28c0-.552.248-1.074.676-1.422L9.264.617a2.75 2.75 0 0 1 3.472 0zm.556 13.591H8.708v6.3l.076.008a22.496 22.496 0 0 0 4.432 0l.076-.007v-6.3zm-3.16-12.525L2.461 7.925a.458.458 0 0 0-.17.356v9.662l.03.078c.35.946 2.468 1.913 5.35 2.355l-.34-.055.002-7.488h7.334v7.488l.01-.001c2.704-.465 4.666-1.392 5.004-2.3l.027-.074V8.28a.458.458 0 0 0-.169-.356l-7.671-6.242a1.375 1.375 0 0 0-1.736 0z" fill="#FF5833" fill-rule="nonzero"/>
</svg>
