<svg width="44" height="44" viewBox="0 0 44 44" xmlns="http://www.w3.org/2000/svg">
    <g fill="none" fill-rule="evenodd">
        <path d="M22 0c12.15 0 22 9.85 22 22s-9.85 22-22 22S0 34.15 0 22 9.85 0 22 0z" fill="#000"/>
        <path d="M21.607 15.287c.813 0 1.833-.567 2.44-1.323.55-.685.951-1.641.951-2.598 0-.13-.011-.26-.034-.366-.905.035-1.994.626-2.647 1.417-.516.603-.985 1.547-.985 2.516 0 .142.023.283.034.33.057.012.149.024.24.024zm-2.865 14.29c1.111 0 1.604-.767 2.99-.767 1.41 0 1.72.744 2.957.744 1.214 0 2.028-1.157 2.796-2.291.86-1.3 1.214-2.575 1.237-2.634-.08-.023-2.406-1.004-2.406-3.755 0-2.386 1.833-3.46 1.936-3.544-1.214-1.795-3.059-1.842-3.563-1.842-1.364 0-2.475.85-3.174.85-.756 0-1.753-.803-2.933-.803-2.246 0-4.526 1.913-4.526 5.527 0 2.244.847 4.618 1.89 6.154.894 1.299 1.673 2.362 2.796 2.362z" fill="#FFF" fill-rule="nonzero"/>
    </g>
</svg>
