<svg width="116" height="74" viewBox="0 0 116 74" xmlns="http://www.w3.org/2000/svg" xmlns:xlink="http://www.w3.org/1999/xlink">
    <defs>
        <path id="e0cd9ft0wa" d="M0 0h18.603v22.272H0z"/>
    </defs>
    <g fill="none" fill-rule="evenodd">
        <path d="M41.226 18.047c-.045-.003-4.52-.239-8.754 1.915a.508.508 0 0 1-.685-.227.516.516 0 0 1 .225-.691c4.489-2.283 9.082-2.036 9.274-2.024a.515.515 0 0 1-.06 1.027zm-.628 5.799a.512.512 0 0 1-.614.384l-7.858-1.85a.514.514 0 0 1 .232-1.002l7.859 1.85a.515.515 0 0 1 .38.618zm-7.208-9.077a1.13 1.13 0 0 1 1.126-1.134h.065a1.13 1.13 0 0 1 1.126 1.134v.149a1.13 1.13 0 0 1-1.126 1.134h-.065a1.13 1.13 0 0 1-1.126-1.134v-.149zm-4.809 6.036a.893.893 0 0 1-.889-.896c0-.495.398-.896.89-.896.49 0 .888.401.888.896a.893.893 0 0 1-.889.896zm-2.84-1.074a.508.508 0 0 1-.684.233c-1.476-.733-3.259-1.217-5.3-1.435a.513.513 0 0 1-.453-.565.51.51 0 0 1 .561-.458c2.16.231 4.06.748 5.644 1.536a.516.516 0 0 1 .231.689zm-.323 2.644-4.408 1.222a.512.512 0 0 1-.628-.36.516.516 0 0 1 .358-.633l4.407-1.222a.515.515 0 0 1 .27.993h.001zm-3.67-6.923a1.13 1.13 0 0 1 1.125-1.135h.065a1.13 1.13 0 0 1 1.125 1.135v.148a1.13 1.13 0 0 1-1.125 1.134h-.065a1.13 1.13 0 0 1-1.125-1.134v-.148zm75.31 21.814c-.375-2.155-2.38-2.554-4.654-2.936-2.713-.456-5.427-1.795-6.276-3.535-1.19-2.438-.692-4.939-.039-6.649.813-2.125.904-4.734.057-6.86-.08-.197-.179-.398-.27-.585l-.002-.002c.305-.16.605-.327.895-.508 3.398-2.113 5.163-6.433 2.593-9.94-2.998-4.09-8.779-3.716-13.18-2.81-1.436.294-2.846.622-4.279.838-1.457.22-2.943.234-4.392-.04-1.361-.256-2.698-.724-3.697-1.65-.392-.364-.505-.544-.749-.986-.223-.404.25.403-.071-.146-.158-.272-.291-.575-.525-.8-.445-.429-1.12-.697-1.736-.652-2.476.182-2.735 3.128-1.113 4.528 1.835 1.584 4.243 2.666 6.634 2.955 1.168.142 2.352.166 3.534.109a1.61 1.61 0 0 0 .216-.01 29.628 29.628 0 0 0 4.064-.533c2.046-.407 4.047-.96 6.14-1.073 2.175-.117 4.75-.031 6.355 1.685 1.156 1.236 1.302 2.977.319 4.371-.63.894-1.557 1.58-2.615 2.109-.842-1.07-3.288-3.725-9.058-4.326-7.83-.818-13.74 3.873-20.477 3.873-3.61 0-8.292-.818-10.367-4.184a26.39 26.39 0 0 0-1.885-3.011c-.833-1.143-2.082-2.013-2.922-1.915-.788.09-2.11 1.072-3.74 2.958-.577.667-2.051.65-3.537.765-3.048.236-3.8.282-4.465-.481-1.645-1.882-2.577-2.704-3.158-2.647-.404.04-1.146.342-1.97 1.418-1.522 1.984-2.466 4.05-3.275 6.56-.978 3.036-1.619 6.643-.268 9.659 2.403 5.362 8.274 6.678 13.535 6.631 1.044.01 2.112-.036 3.172-.155-1.622 2.729-3.963 3.917-6.967 4.44-1.114.194-2.257.21-3.362.449-3.179.688-4.672 3.49-3.138 5.617 1.383 1.915 3.783 1.615 5.95 1.615 5.506 0 12.159-2.382 14.157-3.327 2.16-1.022 4.24-2.168 6.081-3 3.91-1.768 7.926-2.586 12.204-2.605 4.463-.02 8.336 1.128 12.474 2.774 5.012 1.993 10.59 6.446 19.27 6.158 2.09-.069 5.008-1.44 4.537-4.146zM103.285 69.72c-.595.434-1.32.72-2.007.496-.834-.273-.82-1.806-.82-4.182V59.82c0-7.167-3.7-8.026-7.543-8.026-3.153 0-5.76 1.201-7.036 3.778-.648 1.313.023 2.947 1.586 2.938.944-.008 1.684-.656 1.842-1.697.395-2.62 1.48-3.513 3.432-3.513 1.686 0 2.876 1.168 2.876 3.324 0 3.715-3.402 3.556-7.262 5.829-2.853 1.68-4.026 3.547-4.026 6.246 0 2.567 1.787 5.247 5.273 5.247 1.784 0 4.617-.599 6.133-3.405.019.007.015.007.034.01.089 2.627 1.576 3.371 3.065 3.371 1.582 0 4.096-1.317 5.018-3.762.057-.149.02-.323-.08-.414a.38.38 0 0 0-.485-.026zm-7.67-2.996c0 3.787-3.01 4.386-4.212 4.155-2.256-.437-2.816-2.845-2.22-4.671 1.04-3.199 4.819-3.218 6.432-5.57v6.086z" fill="#FF5833"/>
        <g transform="translate(0 51.728)">
            <mask id="a1wab8lzzb" fill="#fff">
                <use xlink:href="#e0cd9ft0wa"/>
            </mask>
            <path d="M11.302 18.269c-2.976-.218-5.142-2.62-5.902-5.872-1.064-4.554.13-9.54 3.624-9.54 2.604 0 3.53 2.715 4.02 4.433l5.18-1.67C17.551 3.987 15.146-.12 9.9.004 4.11.139 0 4.63 0 11.253c0 6.796 4.036 11.019 9.644 11.019 6.32 0 8.326-4.478 8.96-7.145l-1.896-.479c-1.196 2.842-3.232 3.778-5.406 3.62" fill="#FF5833" mask="url(#a1wab8lzzb)"/>
        </g>
        <path d="M30.053 51.731c-6.053 0-10.122 4.49-10.122 11.17 0 6.637 3.974 11.099 9.89 11.099 6.036 0 10.093-4.49 10.093-11.176 0-6.633-3.962-11.093-9.861-11.093m1.294 19.364c-3.224.546-5.435-3.15-6.133-7.363-1.065-6.409.996-8.725 3.25-9.102 3.431-.58 5.45 3.104 6.17 7.438.693 4.174.071 8.463-3.287 9.027M115.725 68.759a.336.336 0 0 0-.335.123c-.794 1.024-1.843 1.76-2.954 1.494-1.307-.31-1.478-1.763-1.478-2.807v-12.84h4.46v-2.002h-4.46v-6.67a.36.36 0 0 0-.359-.363c-.169 0-.315.12-.349.288-.699 3.5-3.169 6.657-7.054 7.778a.493.493 0 0 0 .128.97h2.793v13.83c0 3.968 1.613 5.385 4.402 5.385 2.666 0 4.897-2.421 5.471-4.77a.343.343 0 0 0-.265-.416M51.961 51.731c-6.054 0-10.122 4.49-10.122 11.17 0 6.637 3.974 11.099 9.89 11.099 6.036 0 10.093-4.49 10.093-11.176 0-6.633-3.962-11.093-9.861-11.093m1.294 19.364c-3.224.546-5.435-3.15-6.134-7.363-1.064-6.409.997-8.725 3.25-9.102 3.432-.58 5.452 3.104 6.17 7.438.693 4.174.072 8.463-3.286 9.027M82.705 52.673h-5.517c-1.035 1.144-7.79 8.762-7.811 8.762V43.269l-4.768.547v29.705h4.768l.013-7.193 2.595-2.719 6.367 9.912h5.297l-8.806-12.714 7.862-8.134z" fill="#FF5833"/>
    </g>
</svg>
